/* XPM */
static char *text_xpm[] = {
"7 470 2 1",
".	c #ffffff",
"X	c #000000",
/* exclam */
".......",
".......",
".X.XXXX",
".......",
".......",
/* quotedbl */
".......",
"....XXX",
".......",
"....XXX",
".......",
/* numbersign */
"..X.X..",
".XXXXX.",
"..X.X..",
".XXXXX.",
"..X.X..",
/* dollar */
"....X..",
".X.X.X.",
".XXXXX.",
".X.X.X.",
"..X....",
/* percent */
"..X..XX",
"...X...",
"....X..",
".XX..X.",
".......",
/* ampersand */
"..X.X..",
".X.X.X.",
"..X.X..",
".X.....",
".......",
/* apostrophe */
".......",
".......",
"....XXX",
".......",
".......",
/* parenleft */
".......",
"..XXXX.",
".X....X",
".......",
".......",
/* parenright */
".......",
".X....X",
"..XXXX.",
".......",
".......",
/* asterisk */
".......",
".X.X.X.",
"..XXX..",
".X.X.X.",
".......",
/* plus */
"...X...",
"...X...",
".XXXXX.",
"...X...",
"...X...",
/* comma */
".......",
"X......",
".XX....",
"..X....",
".......",
/* minus */
"...X...",
"...X...",
"...X...",
"...X...",
".......",
/* period */
".......",
".XX....",
".XX....",
".......",
".......",
/* slash */
"..X....",
"...X...",
"....X..",
".....X.",
".......",
/* 0 */
".......",
"..XXXX.",
".X....X",
"..XXXX.",
".......",
/* 1 */
".......",
".X...X.",
".XXXXXX",
".X.....",
".......",
/* 2 */
".X...X.",
".XX...X",
".X.X..X",
".X..XX.",
".......",
/* 3 */
"..X...X",
".X..X.X",
".X..X.X",
"..XX.XX",
".......",
/* 4 */
"...XX..",
"...X.X.",
".XXXXXX",
"...X...",
".......",
/* 5 */
"..X.XXX",
".X..X.X",
".X..X.X",
"..XX..X",
".......",
/* 6 */
"..XXXX.",
".X..X.X",
".X..X.X",
"..XX...",
".......",
/* 7 */
"......X",
".XX...X",
"...XX.X",
".....XX",
".......",
/* 8 */
"..XX.X.",
".X..X.X",
".X..X.X",
"..XX.X.",
".......",
/* 9 */
"....XX.",
".X.X..X",
".X.X..X",
"..XXXX.",
".......",
/* colon */
".......",
".XX.XX.",
".XX.XX.",
".......",
".......",
/* semicolon */
"X......",
".XX.XX.",
"..X.XX.",
".......",
".......",
/* less */
".......",
"...X...",
"..X.X..",
".X...X.",
".......",
/* equal */
"..X.X..",
"..X.X..",
"..X.X..",
"..X.X..",
".......",
/* greater */
".......",
".X...X.",
"..X.X..",
"...X...",
".......",
/* question */
".......",
".....X.",
".X.X..X",
"....XX.",
".......",
/* at */
"..XXXX.",
".X....X",
".X.XX.X",
"...XXX.",
".......",
/* A */
".XXXXX.",
"...X..X",
"...X..X",
".XXXXX.",
".......",
/* B */
".XXXXXX",
".X..X.X",
".X..X.X",
"..XX.X.",
".......",
/* C */
"..XXXX.",
".X....X",
".X....X",
"..X..X.",
".......",
/* D */
".XXXXXX",
".X....X",
".X....X",
"..XXXX.",
".......",
/* E */
".XXXXXX",
".X..X.X",
".X..X.X",
".X....X",
".......",
/* F */
".XXXXXX",
"....X.X",
"....X.X",
"......X",
".......",
/* G */
"..XXXX.",
".X....X",
".X.X..X",
".XXX.X.",
".......",
/* H */
".XXXXXX",
"....X..",
"....X..",
".XXXXXX",
".......",
/* I */
".......",
".X....X",
".XXXXXX",
".X....X",
".......",
/* J */
"..X....",
".X.....",
".X.....",
"..XXXXX",
".......",
/* K */
".XXXXXX",
"...XX..",
"..X..X.",
".X....X",
".......",
/* L */
".XXXXXX",
".X.....",
".X.....",
".X.....",
".......",
/* M */
".XXXXXX",
"....XX.",
"....XX.",
".XXXXXX",
".......",
/* N */
".XXXXXX",
"....XX.",
"..XX...",
".XXXXXX",
".......",
/* O */
"..XXXX.",
".X....X",
".X....X",
"..XXXX.",
".......",
/* P */
".XXXXXX",
"...X..X",
"...X..X",
"....XX.",
".......",
/* Q */
"..XXXX.",
".XX...X",
".X....X",
"X.XXXX.",
".......",
/* R */
".XXXXXX",
"...X..X",
"..XX..X",
".X..XX.",
".......",
/* S */
"..X..X.",
".X..X.X",
".X.X..X",
"..X..X.",
".......",
/* T */
".......",
"......X",
".XXXXXX",
"......X",
".......",
/* U */
"..XXXXX",
".X.....",
".X.....",
"..XXXXX",
".......",
/* V */
"...XXXX",
".XX....",
".XX....",
"...XXXX",
".......",
/* W */
".XXXXXX",
"..XX...",
"..XX...",
".XXXXXX",
".......",
/* X */
".XX..XX",
"...XX..",
"...XX..",
".XX..XX",
".......",
/* Y */
".......",
"....XXX",
".XXX...",
"....XXX",
".......",
/* Z */
".XX...X",
".X.X..X",
".X..X.X",
".X...XX",
".......",
/* bracketleft */
".......",
".XXXXXX",
".X....X",
".X....X",
".......",
/* backslash */
".....X.",
"....X..",
"...X...",
"..X....",
".......",
/* bracketright */
".......",
".X....X",
".X....X",
".XXXXXX",
".......",
/* asciicircum */
".......",
".....X.",
"......X",
".....X.",
".......",
/* underscore */
".X.....",
".X.....",
".X.....",
".X.....",
".......",
/* grave */
".......",
"......X",
".....X.",
".......",
".......",
/* a */
"..XX...",
".X..X..",
"..X.X..",
".XXXX..",
".......",
/* b */
".XXXXXX",
".X..X..",
".X..X..",
"..XX...",
".......",
/* c */
"..XX...",
".X..X..",
".X..X..",
".......",
".......",
/* d */
"..XX...",
".X..X..",
".X..X..",
".XXXXXX",
".......",
/* e */
"..XX...",
".XX.X..",
".X.XX..",
"...X...",
".......",
/* f */
"...X...",
".XXXXX.",
"...X..X",
".....X.",
".......",
/* g */
".X.X...",
"X.X.X..",
"X.X.X..",
"X..XX..",
".......",
/* h */
".XXXXXX",
"....X..",
"....X..",
".XXX...",
".......",
/* i */
".......",
".X..X..",
".XXXX.X",
".X.....",
".......",
/* j */
".......",
".X.....",
"X......",
".XXXX.X",
".......",
/* k */
".XXXXXX",
"...X...",
"..X.X..",
".X.....",
".......",
/* l */
".......",
".X....X",
".XXXXXX",
".X.....",
".......",
/* m */
".XXXX..",
"...X...",
"...XX..",
".XXX...",
".......",
/* n */
".XXXX..",
"....X..",
"....X..",
".XXX...",
".......",
/* o */
"..XX...",
".X..X..",
".X..X..",
"..XX...",
".......",
/* p */
"XXXXX..",
".X..X..",
".X..X..",
"..XX...",
".......",
/* q */
"..XX...",
".X..X..",
".X..X..",
"XXXXX..",
".......",
/* r */
".XXXX..",
"....X..",
"....X..",
"...X...",
".......",
/* s */
".X.X...",
".X.XX..",
".XX.X..",
"..X.X..",
".......",
/* t */
"....X..",
"..XXXXX",
".X..X..",
".X.....",
".......",
/* u */
"..XXX..",
".X.....",
".X.....",
".XXXX..",
".......",
/* v */
".......",
"..XXX..",
".X.....",
"..XXX..",
".......",
/* w */
".XXXX..",
".XX....",
".XX....",
".XXXX..",
".......",
/* x */
".X..X..",
"..XX...",
"..XX...",
".X..X..",
".......",
/* y */
"...XX..",
"X.X....",
".X.....",
"..XXX..",
".......",
/* z */
".X..X..",
".XX.X..",
".X.XX..",
".X..X..",
".......",
/* braceleft */
".......",
"....X..",
"..XXXX.",
".X....X",
".......",
/* bar */
".......",
".......",
".XXXXXX",
".......",
".......",
/* braceright */
".......",
".X....X",
"..XXXX.",
"....X..",
".......",
/* asciitilde */
".....X.",
"......X",
".....X.",
"......X",
"......."};
